<svg id="Settings" xmlns="http://www.w3.org/2000/svg" width="40" height="40" viewBox="0 0 40 40">
  <g id="Group_5" data-name="Group 5">
    <g id="Group_3" data-name="Group 3">
      <path id="Path_1" data-name="Path 1" d="M21.667,40H18.333a2.5,2.5,0,0,1-2.5-2.5V34.4a14.877,14.877,0,0,1-3.068-1.273l-2.195,2.2a2.561,2.561,0,0,1-3.536,0L4.678,32.963a2.5,2.5,0,0,1,0-3.535l2.2-2.2A14.782,14.782,0,0,1,5.6,24.166H2.5a2.5,2.5,0,0,1-2.5-2.5V18.333a2.5,2.5,0,0,1,2.5-2.5H5.6a14.879,14.879,0,0,1,1.272-3.066l-2.2-2.2a2.5,2.5,0,0,1,0-3.535L7.037,4.678a2.561,2.561,0,0,1,3.536,0l2.2,2.2A14.869,14.869,0,0,1,15.833,5.6V2.5a2.5,2.5,0,0,1,2.5-2.5h3.333a2.5,2.5,0,0,1,2.5,2.5V5.6a14.885,14.885,0,0,1,3.065,1.271l2.2-2.2a2.561,2.561,0,0,1,3.536,0l2.357,2.357a2.5,2.5,0,0,1,0,3.535l-2.195,2.2A14.8,14.8,0,0,1,34.4,15.833h3.1a2.5,2.5,0,0,1,2.5,2.5v3.333a2.5,2.5,0,0,1-2.5,2.5H34.4a14.875,14.875,0,0,1-1.272,3.067l2.195,2.2a2.5,2.5,0,0,1,0,3.535l-2.357,2.357a2.561,2.561,0,0,1-3.536,0l-2.194-2.2A14.879,14.879,0,0,1,24.167,34.4v3.1A2.5,2.5,0,0,1,21.667,40Zm-9.036-8.752a.835.835,0,0,1,.434.122,13.231,13.231,0,0,0,3.8,1.576.833.833,0,0,1,.638.81V37.5a.834.834,0,0,0,.833.833h3.333A.834.834,0,0,0,22.5,37.5V33.756a.833.833,0,0,1,.637-.81,13.23,13.23,0,0,0,3.8-1.575.834.834,0,0,1,1.024.122l2.648,2.649a.859.859,0,0,0,1.179,0l2.357-2.357a.834.834,0,0,0,0-1.178l-2.649-2.649a.833.833,0,0,1-.122-1.024,13.216,13.216,0,0,0,1.574-3.8.833.833,0,0,1,.81-.638H37.5a.83.83,0,0,0,.59-.244.821.821,0,0,0,.243-.588V18.333A.834.834,0,0,0,37.5,17.5H33.756a.833.833,0,0,1-.81-.638,13.208,13.208,0,0,0-1.574-3.8.833.833,0,0,1,.122-1.024l2.649-2.649a.833.833,0,0,0,0-1.178L31.785,5.856a.855.855,0,0,0-1.179,0L27.957,8.505a.83.83,0,0,1-1.024.122,13.22,13.22,0,0,0-3.8-1.574.831.831,0,0,1-.637-.808V2.5a.834.834,0,0,0-.833-.833H18.333A.834.834,0,0,0,17.5,2.5V6.244a.833.833,0,0,1-.638.81,13.228,13.228,0,0,0-3.8,1.574.832.832,0,0,1-1.023-.122L9.393,5.858a.855.855,0,0,0-1.179,0L5.858,8.214a.834.834,0,0,0,0,1.178l2.649,2.649a.833.833,0,0,1,.122,1.024,13.213,13.213,0,0,0-1.574,3.8.833.833,0,0,1-.81.638H2.5a.832.832,0,0,0-.833.833v3.333A.834.834,0,0,0,2.5,22.5H6.244a.833.833,0,0,1,.81.638,13.221,13.221,0,0,0,1.574,3.8.833.833,0,0,1-.122,1.024l-2.649,2.65a.833.833,0,0,0,0,1.178l2.357,2.357a.855.855,0,0,0,1.179,0l2.648-2.649A.825.825,0,0,1,12.631,31.248Z"/>
    </g>
    <g id="Group_4" data-name="Group 4" transform="translate(10 10)">
      <path id="Path_2" data-name="Path 2" d="M24,34A10,10,0,1,1,34,24,10.011,10.011,0,0,1,24,34Zm0-18a8,8,0,1,0,8,8A8.009,8.009,0,0,0,24,16Z" transform="translate(-14 -14)"/>
    </g>
  </g>
</svg>
