<svg id="Sign_Out" xmlns="http://www.w3.org/2000/svg" width="35" height="35" viewBox="0 0 35 35">
  <path id="Path_6" data-name="Path 6" d="M15,32.812H2V2.187H15a1.05,1.05,0,0,0,1-1.094A1.05,1.05,0,0,0,15,0H1A1.05,1.05,0,0,0,0,1.094V33.906A1.05,1.05,0,0,0,1,35H15a1.1,1.1,0,0,0,0-2.187Z"/>
  <path id="Path_7" data-name="Path 7" d="M31.71,15.3l-6.9-7a.993.993,0,0,0-1.414,0,1.016,1.016,0,0,0,0,1.428l5.2,5.275H8a1.01,1.01,0,0,0,0,2.02H28.6L23.4,22.3a1.016,1.016,0,0,0,0,1.428.992.992,0,0,0,1.414,0l6.9-7A1.022,1.022,0,0,0,31.71,15.3Z" transform="translate(3 1.503)"/>
</svg>
