<svg id="AboutUs" xmlns="http://www.w3.org/2000/svg" width="40" height="40" viewBox="0 0 40 40">
  <g id="Path_3" data-name="Path 3" fill="#fff">
    <path d="M 20 39 C 17.43457984924316 39 14.94641971588135 38.49777984619141 12.60464954376221 37.50730133056641 C 10.34226036071777 36.55038833618164 8.310219764709473 35.18027877807617 6.564970016479492 33.43503189086914 C 4.819719791412354 31.68977928161621 3.449609994888306 29.65773963928223 2.492700099945068 27.39534950256348 C 1.502220034599304 25.05357933044434 1 22.5654296875 1 20 C 1 17.43457984924316 1.502220034599304 14.94641971588135 2.492700099945068 12.60464954376221 C 3.449609994888306 10.34226036071777 4.819719791412354 8.310219764709473 6.564970016479492 6.564970016479492 C 8.310219764709473 4.819719791412354 10.34226036071777 3.449609994888306 12.60464954376221 2.492700099945068 C 14.94641971588135 1.502220034599304 17.43457984924316 1 20 1 C 22.5654296875 1 25.05357933044434 1.502220034599304 27.39534950256348 2.492700099945068 C 29.65773963928223 3.449609994888306 31.68977928161621 4.819719791412354 33.43503189086914 6.564970016479492 C 35.18027877807617 8.310219764709473 36.55038833618164 10.34226036071777 37.50730133056641 12.60464954376221 C 38.49777984619141 14.94641971588135 39 17.43457984924316 39 20 C 39 24.8085994720459 37.22151947021484 29.30386924743652 33.85681915283203 32.99982070922852 C 32.20959854125977 34.81237030029297 30.11363983154297 36.31602096557617 27.79495048522949 37.34886169433594 C 25.33534049987793 38.44448089599609 22.71273040771484 39 20 39 Z" stroke="none"/>
    <path d="M 20 2 C 15.19202041625977 2 10.67182922363281 3.872329711914062 7.272079467773438 7.272079467773438 C 3.872329711914062 10.67182922363281 2 15.19202041625977 2 20 C 2 24.80797958374023 3.872329711914062 29.32817077636719 7.272079467773438 32.72792053222656 C 10.67182922363281 36.12767028808594 15.19202041625977 38 20 38 C 22.57163047790527 38 25.05733108520508 37.47359085083008 27.3880500793457 36.43537902832031 C 29.58121109008789 35.45845794677734 31.56196975708008 34.03812026977539 33.11735153198242 32.32662963867188 C 36.31161117553711 28.81789970397949 38 24.555419921875 38 20 C 38 15.19202041625977 36.12767028808594 10.67182922363281 32.72792053222656 7.272079467773438 C 29.32817077636719 3.872329711914062 24.80797958374023 2 20 2 M 20 0 C 31.04570007324219 0 40 8.954299926757812 40 20 C 40 25.18040084838867 38.03041839599609 29.90079116821289 34.59629058837891 33.67301177978516 C 31.14089012145996 37.4752082824707 25.86528968811035 40 20 40 C 8.954299926757812 40 0 31.04570007324219 0 20 C 0 8.954299926757812 8.954299926757812 0 20 0 Z" stroke="none"/>
  </g>
  <g id="i" transform="translate(-355 -38)">
    <rect id="Rectangle_5" data-name="Rectangle 5" width="2" height="2" rx="1" transform="translate(374 46)"/>
    <rect id="Rectangle_6" data-name="Rectangle 6" width="2" height="18" rx="1" transform="translate(374 52)"/>
  </g>
</svg>
